# xmcd
#
# Track frame offsets: 
#        150
#        3618
#        28140
#        56167
#
# Disc length: 1088 seconds
#
# Revision: 1
# Processed by: cddbd v1.5.2PL0 Copyright (c) Steve Scherf et al.
# Submitted via: ExactAudioCopy v1.3
#
DISCID=30043e04
DTITLE=РыбийЖыр - РыбийЖыр
DYEAR=2007
DGENRE=Rapcore
TTITLE0=Intro
TTITLE1=Снайпер
TTITLE2=Сука
TTITLE3=РыбийЖыр
EXTD=
EXTT0=
EXTT1=
EXTT2=
EXTT3=
PLAYORDER=
